M48
; DRILL file KiCad 10.0.3 date 2026-06-01T02:55:51
; FORMAT={-:-/ absolute / metric / decimal}
; #@! TF.CreationDate,2026-06-01T02:55:51-04:00
; #@! TF.GenerationSoftware,Kicad,Pcbnew,10.0.3
; #@! TF.FileFunction,Plated,1,2,PTH
FMAT,2
METRIC
; #@! TA.AperFunction,Plated,PTH,ViaDrill
T1C0.300
; #@! TA.AperFunction,Plated,PTH,ComponentDrill
T2C0.700
; #@! TA.AperFunction,Plated,PTH,ComponentDrill
T3C0.800
%
G90
G05
T1
X125.73Y-67.31
X125.785Y-91.44
X125.785Y-100.33
X129.835Y-65.065
X129.835Y-69.85
X129.835Y-88.9
X129.835Y-102.87
T2
X174.625Y-55.88
X174.625Y-62.23
X174.625Y-69.215
T3
X83.82Y-52.07
X83.82Y-54.61
X83.82Y-57.15
X83.82Y-59.69
X83.82Y-64.77
X83.82Y-67.31
X83.82Y-85.09
X83.82Y-87.63
X83.82Y-90.17
X83.82Y-92.71
X83.82Y-97.79
X83.82Y-100.33
X119.38Y-52.07
X119.38Y-54.61
X119.38Y-57.15
X119.38Y-59.69
X119.38Y-62.23
X119.38Y-64.77
X119.38Y-67.31
X119.38Y-69.85
X119.38Y-72.39
X119.38Y-74.93
X119.38Y-85.09
X119.38Y-87.63
X119.38Y-90.17
X119.38Y-92.71
X119.38Y-95.25
X119.38Y-97.79
X119.38Y-100.33
X119.38Y-102.87
X119.38Y-105.41
X119.38Y-107.95
X125.785Y-115.57
X125.785Y-123.19
X129.835Y-115.57
X129.835Y-123.19
X135.89Y-83.82
X135.89Y-86.36
X135.89Y-88.9
X135.89Y-91.44
X135.89Y-93.98
X135.89Y-96.52
X135.89Y-99.06
X135.89Y-101.6
X135.89Y-104.14
X135.89Y-106.68
X139.11Y-57.15
X139.11Y-59.69
X139.11Y-62.23
X139.11Y-64.77
X139.11Y-67.31
X139.11Y-69.85
X139.11Y-72.39
X171.45Y-91.44
X171.45Y-93.98
X171.45Y-99.06
X171.45Y-101.6
X171.45Y-104.14
X171.45Y-106.68
M30
